<svg width="19" height="19" viewBox="0 0 19 19" fill="none" xmlns="http://www.w3.org/2000/svg">
<path d="M6.33274 6.74656C6.94174 8.01498 7.77193 9.20379 8.82331 10.2552C9.87469 11.3066 11.0635 12.1367 12.3319 12.7457C12.441 12.7981 12.4956 12.8243 12.5646 12.8444C12.8099 12.9159 13.1111 12.8646 13.3189 12.7158C13.3774 12.674 13.4274 12.6239 13.5274 12.5239C13.8333 12.218 13.9862 12.0651 14.1401 11.9651C14.7201 11.5879 15.4678 11.5879 16.0479 11.9651C16.2017 12.0651 16.3546 12.218 16.6605 12.5239L16.831 12.6944C17.2961 13.1594 17.5286 13.392 17.6549 13.6417C17.906 14.1383 17.906 14.7248 17.6549 15.2214C17.5286 15.4711 17.2961 15.7036 16.831 16.1686L16.6931 16.3065C16.2297 16.77 15.998 17.0017 15.683 17.1786C15.3334 17.375 14.7905 17.5162 14.3895 17.515C14.0282 17.5139 13.7812 17.4438 13.2873 17.3036C10.6331 16.5503 8.12856 15.1289 6.03908 13.0394C3.94959 10.9499 2.52818 8.44536 1.77483 5.79113C1.63465 5.29724 1.56456 5.0503 1.56348 4.68897C1.56229 4.28803 1.70348 3.7451 1.89985 3.39553C2.07682 3.0805 2.30853 2.84879 2.77195 2.38537L2.90988 2.24744C3.37489 1.78243 3.6074 1.54992 3.8571 1.42362C4.35372 1.17243 4.9402 1.17243 5.43682 1.42362C5.68653 1.54992 5.91903 1.78243 6.38404 2.24744L6.55456 2.41795C6.86046 2.72386 7.01341 2.87681 7.11341 3.03061C7.49053 3.61064 7.49053 4.3584 7.11341 4.93843C7.01341 5.09224 6.86046 5.24519 6.55456 5.55109C6.45453 5.65112 6.40452 5.70113 6.36266 5.75959C6.2139 5.96734 6.16254 6.26857 6.23404 6.51388C6.25417 6.58291 6.28036 6.63746 6.33274 6.74656Z" stroke="currentColor" stroke-width="1.5" stroke-linecap="round" stroke-linejoin="round"/>
</svg>
