<svg width="14" height="13" viewBox="0 0 14 13" fill="none" xmlns="http://www.w3.org/2000/svg">
<path d="M6.52175 1.30217C6.6754 0.990877 6.75223 0.835231 6.85653 0.785502C6.94728 0.742235 7.0527 0.742235 7.14345 0.785502C7.24775 0.835231 7.32458 0.990877 7.47823 1.30217L8.93602 4.25548C8.98138 4.34738 9.00406 4.39333 9.03721 4.42901C9.06656 4.4606 9.10176 4.48619 9.14086 4.50437C9.18501 4.52491 9.23572 4.53232 9.33713 4.54714L12.598 5.02376C12.9414 5.07395 13.113 5.09905 13.1925 5.18292C13.2616 5.25589 13.2941 5.35616 13.281 5.45581C13.2659 5.57034 13.1416 5.69141 12.893 5.93355L10.5343 8.23091C10.4608 8.30252 10.424 8.33833 10.4003 8.38093C10.3793 8.41866 10.3658 8.4601 10.3606 8.50296C10.3547 8.55137 10.3634 8.60196 10.3807 8.70312L10.9373 11.948C10.996 12.2903 11.0253 12.4614 10.9702 12.563C10.9222 12.6513 10.8369 12.7133 10.738 12.7316C10.6244 12.7527 10.4707 12.6719 10.1634 12.5102L7.24823 10.9772C7.1574 10.9294 7.11199 10.9055 7.06414 10.8961C7.02178 10.8878 6.9782 10.8878 6.93584 10.8961C6.888 10.9055 6.84258 10.9294 6.75175 10.9772L3.8366 12.5102C3.52926 12.6719 3.37559 12.7527 3.26196 12.7316C3.1631 12.7133 3.07779 12.6513 3.0298 12.563C2.97465 12.4614 3.004 12.2903 3.0627 11.948L3.61924 8.70312C3.63659 8.60196 3.64526 8.55137 3.63939 8.50296C3.6342 8.4601 3.62072 8.41866 3.59972 8.38093C3.57599 8.33833 3.53923 8.30252 3.4657 8.2309L1.10702 5.93355C0.858422 5.69141 0.734123 5.57034 0.718997 5.45581C0.705837 5.35616 0.738349 5.25589 0.80748 5.18292C0.886936 5.09905 1.05863 5.07395 1.40201 5.02376L4.66285 4.54714C4.76426 4.53232 4.81497 4.52491 4.85912 4.50437C4.89822 4.48619 4.93342 4.4606 4.96277 4.42901C4.99592 4.39333 5.0186 4.34738 5.06396 4.25548L6.52175 1.30217Z" fill="#E28800"/>
</svg>
